<svg viewBox="0 90.9 100 39.4" id="shape-logo-large" width="100%" height="100%"><title>logo-large</title> <path id="svgstore18a3a3cb72bb316744f99ddf5812d4b5text-bridge" d="M95.9,127.7l-9.5-12.9l9.1-9.5h-6l-9.1,9.8v-9.7h-4.9v22.3h-5.8l-5.5-8
	c2.8-1,4.8-3.3,4.8-6.9v-0.1c0-4.6-3.2-7.4-8.5-7.4H50.3v22.4h-4l-9.5-22.6h-4.5l-9.7,22.6H9.3V121h3.8c5,0,9-2.7,9-7.8v-0.1
	c0-4.6-3.3-7.8-8.6-7.8H4.4v22.4H0v2.6h100v-2.6L95.9,127.7L95.9,127.7z M9.3,116.6v-6.8h3.8c2.4,0,4,1.2,4,3.4v0.1
	c0,1.9-1.5,3.4-3.9,3.4L9.3,116.6L9.3,116.6z M34.4,111l3,7.3h-6L34.4,111z M27.6,127.7l2-5H39l2.2,5H27.6z M55.2,127.7v-7.2h3.9
	l4.8,7.2H55.2z M60.3,116.3h-5v-6.5h4.9c2.3,0,3.8,1,3.8,3.3C64,114.9,62.6,116.3,60.3,116.3z M80.4,127.7v-6.8l2.6-2.7l6.9,9.5
	H80.4z"></path> <path id="svgstore18a3a3cb72bb316744f99ddf5812d4b5text-park" d="M95.6,97.2V96h-3.3v-1.3h2.8v-1.2h-2.8v-1.2h3.2v-1.2H91v6h-3.3
	c0.6-0.1,1.2-0.5,1.6-0.8v-2.6h-2.6v1.1H88v0.8c-0.3,0.2-0.8,0.3-1.2,0.3c-1,0-1.8-0.8-1.8-1.9c0-1.1,0.8-1.9,1.7-1.9
	c0.7,0,1.1,0.2,1.6,0.6l0.8-1c-0.6-0.6-1.2-0.8-2.4-0.8c-1.8,0-3.1,1.4-3.1,3.1c0,1.5,0.9,2.6,2.2,3h-6.2c1.7-0.1,2.8-1.4,2.8-3
	c0-1.7-1.3-3-3.2-3h-2.4v6H75v-6h-1.4v6h-1.5l-1.5-2.1c0.8-0.3,1.3-0.9,1.3-1.9c0-1.2-0.8-2-2.3-2h-2.8v6h-3.3
	c1-0.1,1.7-0.7,1.7-1.6c0-0.8-0.4-1.2-1.1-1.5c0.4-0.2,0.8-0.6,0.8-1.3c0-1-0.8-1.5-2-1.5h-2.8v6h-4.4v-6h-1.3v3.7l-2.8-3.7h-1.2v6
	h-3.5v-2.3l2.3-3.6h-1.3l-1.5,2.4L45,91.2h-1.5l2.4,3.6v2.4h-2.1V96h-3v-4.9h-1.3v6h-1.2l-2.7-3.4l2.4-2.6h-1.6L34,93.8v-2.6h-1.3v6
	h-3.8c1.4-0.3,2.3-1.5,2.3-3c0.1-1.7-1.3-3.1-3.1-3.1c-1.9,0-3.2,1.4-3.2,3.1c0,1.4,0.9,2.6,2.3,3h-5.8c1.4-0.3,2.3-1.5,2.3-3
	c-0.1-1.7-1.4-3.1-3.3-3.1s-3.2,1.4-3.2,3.1c0,1.4,0.9,2.6,2.3,3h-3.3l-1.5-2.1c0.8-0.3,1.3-0.9,1.3-1.9c0-1.2-0.8-2-2.3-2H11v6H7.7
	c1-0.1,1.7-0.7,1.7-1.6c0-0.8-0.4-1.2-1.1-1.5c0.4-0.2,0.8-0.6,0.8-1.3c0-1-0.8-1.5-2-1.5H4.3v6H0V98h100v-0.8
	C100,97.2,95.6,97.2,95.6,97.2z M5.7,92.3h1.2c0.6,0,0.9,0.2,0.9,0.6s-0.3,0.6-1,0.6H5.7V92.3z M5.7,96v-1.3h1.5c0.7,0,1,0.3,1,0.6
	c0,0.5-0.3,0.7-1,0.7C7.2,96,5.7,96,5.7,96z M12.4,97.2v-1.9h1l1.2,1.9H12.4z M13.6,94h-1.3v-1.7h1.3c0.7,0,1,0.3,1,0.8
	C14.7,93.7,14.3,94,13.6,94z M18.6,94.2c0-1,0.8-1.9,1.8-1.9s1.8,0.8,1.8,1.9c0,1.1-0.8,1.9-1.8,1.9C19.4,96,18.6,95.2,18.6,94.2z
	 M26.2,94.2c0-1,0.8-1.9,1.8-1.9s1.8,0.8,1.8,1.9c0,1.1-0.8,1.9-1.8,1.9C27,96,26.2,95.2,26.2,94.2z M34,97.2v-1.8l0.7-0.7l1.9,2.5
	H34z M51.9,97.2v-3.8l2.9,3.8H51.9z M61.6,92.3h1.3c0.6,0,0.9,0.2,0.9,0.6s-0.3,0.6-1,0.6h-1.2V92.3z M61.6,96v-1.3h1.6
	c0.7,0,1,0.3,1,0.6c0,0.5-0.3,0.7-1,0.7C63.2,96,61.6,96,61.6,96z M68.3,92.4h1.3c0.6,0,1,0.3,1,0.8c0,0.5-0.3,0.8-1,0.8h-1.3V92.4z
	 M68.3,97.2v-1.9h1l1.2,1.9H68.3z M78.1,96v-3.6h1c1.1,0,1.8,0.8,1.8,1.8S80.1,96,79.1,96H78.1z"></path> </svg>